<?xml version="1.0" standalone="no"?>
<svg xmlns:xlink="http://www.w3.org/1999/xlink" id="Layer_1" data-name="Layer 1" xmlns="http://www.w3.org/2000/svg" viewBox="0 0 218.52 23.51"><defs><style>.cls-1{fill:#fff;}</style></defs><polygon class="cls-1" points="218.52 23.35 209.27 10.51 217.92 0.1 213.07 0.1 202.21 12.93 202.21 0.1 198.29 0.1 198.29 23.35 202.21 23.35 202.21 19.01 206.62 13.7 213.81 23.35 218.52 23.35"/><path class="cls-1" d="M14.75,23.35l-4.25-7c-.34,0-.7,0-1.07,0H3.92v7H0V.1H9.43C15.38.1,18.8,3,18.8,8c0,3.72-1.73,6.34-4.82,7.54l5.22,7.77ZM9.43,12.82c3.59,0,5.65-1.53,5.65-4.68S13,3.62,9.43,3.62H3.92v9.2Z"/><path class="cls-1" d="M47.62.1V3.62h-13V9.9h13v3.52h-13v6.41H47.66v3.52h-17V.1Z"/><path class="cls-1" d="M80.65,11.72c0,6.71-5.08,11.63-12.12,11.63H59.09V.1h9.54C75.6.1,80.65,5,80.65,11.72Zm-4,0a7.93,7.93,0,0,0-8.14-8.14H63V19.83h5.72A7.8,7.8,0,0,0,76.7,11.76Z"/><path class="cls-1" d="M109.38,5.91a5.09,5.09,0,0,1-4.08,5.18,5.64,5.64,0,0,1,5,5.88c0,4-3.22,6.38-8.47,6.38H91.48V.1h10.1C106.39.1,109.38,2.29,109.38,5.91Zm-4,.7c0-2-1.49-3-4-3h-6V9.73h6C103.87,9.73,105.36,8.57,105.36,6.61Zm.9,9.86c0-2.06-1.83-3.29-4.88-3.29h-6v6.68h6C104.43,19.86,106.26,18.67,106.26,16.47Z"/><path class="cls-1" d="M136.32,23.35l-4.25-7c-.33,0-.7,0-1.06,0H125.5v7h-3.92V.1H131C137,.1,140.38,3,140.38,8c0,3.72-1.73,6.34-4.82,7.54l5.21,7.77ZM131,12.82c3.59,0,5.65-1.53,5.65-4.68S134.6,3.62,131,3.62H125.5v9.2Z"/><path class="cls-1" d="M156.16.1V23.35h-3.92V.1Z"/><path class="cls-1" d="M179.07,3.49a8.19,8.19,0,1,0,0,16.37,9.58,9.58,0,0,0,6.47-2.76l2.33,2.6a13.21,13.21,0,0,1-9,3.81,11.78,11.78,0,0,1-12.09-11.82C166.78,5.08,172.12,0,179,0a12.78,12.78,0,0,1,8.83,3.59l-2.29,2.85A9.08,9.08,0,0,0,179.07,3.49Z"/></svg>